<?xml version="1.0" encoding="utf-8"?>
<!-- Svg Vector Icons : http://www.onlinewebfonts.com/icon -->
<!DOCTYPE svg PUBLIC "-//W3C//DTD SVG 1.1//EN" "http://www.w3.org/Graphics/SVG/1.1/DTD/svg11.dtd">
<svg version="1.1" xmlns="http://www.w3.org/2000/svg" height="30px" width="30px" xmlns:xlink="http://www.w3.org/1999/xlink" x="0px" y="0px" viewBox="0 0 256 256" enable-background="new 0 0 256 256" xml:space="preserve">
<metadata> Svg Vector Icons : http://www.onlinewebfonts.com/icon </metadata>
<g><g><path fill="#ffffff" d="M33,27.6c0-2.1,1.7-3.8,3.8-3.8h147.7l20.5-23H36.9C22,0.7,10,12.8,10,27.6V220l23-25.9V27.6z"/><path fill="#ffffff" d="M223,61.4V229c0,2.1-1.8,3.8-3.8,3.8H70.4l-20.5,23h169.2c14.8,0,26.9-12.1,26.9-26.9V35.5L223,61.4z"/><path fill="#ffffff" d="M149.8,62.8H72.7c-6.3,0-11.5,5.2-11.5,11.5c0,6.3,5.2,11.5,11.5,11.5h56.7L149.8,62.8z"/><path fill="#ffffff" d="M183.3,170.8h-57.7l-20.5,23h78.2c6.3,0,11.5-5.2,11.5-11.5C194.8,176,189.7,170.8,183.3,170.8z"/><path fill="#ffffff" d="M61.2,128.3c0,6.3,5.2,11.5,11.5,11.5h8.6l20.5-23H72.7C66.3,116.8,61.2,122,61.2,128.3z"/><path fill="#ffffff" d="M185.2,116.8h-11.6l-20.5,23h32.1c6.3,0,11.5-5.2,11.5-11.5C196.7,122,191.6,116.8,185.2,116.8z"/><path fill="#ffffff" d="M105,170.8l27.6-31l20.5-23l27.6-31l13.5-15.1L223,38.3l16.9-19c1.3-1.5,2-3.2,2.4-5c1-4-0.1-8.4-3.4-11.3c-2.2-2-4.9-2.9-7.6-2.9c-2,0-3.9,0.5-5.6,1.5c-1.1,0.6-2.1,1.3-3,2.3L205,23.8l-34.6,39l-20.5,23l-27.6,31l-20.5,23l-27.6,31l-12.7,14.3L33,217.2l-14.4,16.2c-4.1,4.6-3.7,11.6,0.7,15.9c0.1,0.1,0.2,0.3,0.3,0.4c0.2,0.2,0.4,0.2,0.7,0.4c2.1,1.6,4.5,2.5,7,2.5c3.2,0,6.3-1.3,8.6-3.9l14-15.8l34.7-39L105,170.8z"/></g></g>
</svg>